<svg width="200" height="200" viewBox="0 0 200 200" fill="none" xmlns="http://www.w3.org/2000/svg">
<g filter="url(#filter0_d_661_11)">
<rect x="4" width="381" height="381" rx="24" fill="url(#paint0_linear_661_11)"/>
</g>
<g clip-path="url(#clip0_661_11)">
<g filter="url(#filter1_i_661_11)">
<path fill-rule="evenodd" clip-rule="evenodd" d="M194.5 294.431C267.673 294.431 327 241.054 327 175.224C327 109.394 267.673 56 194.5 56C121.327 56 62 109.377 62 175.224C62 200.925 71.0431 224.738 86.4297 244.194L70.2812 325L135.14 281.837C153.937 290.22 174.122 294.503 194.5 294.431Z" stroke="white" stroke-width="30" stroke-linecap="round" stroke-linejoin="round"/>
</g>
<g filter="url(#filter2_i_661_11)">
<path fill-rule="evenodd" clip-rule="evenodd" d="M194.98 200C205.08 200 215.18 190 215.18 180C215.18 170 205.08 160 194.98 160C184.88 160 174.8 170 174.8 180C174.8 190 184.88 200 194.98 200ZM114.18 200C124.28 200 134.38 190 134.38 180C134.38 170 124.28 160 114.18 160C104.08 160 94 170 94 180C94 190 104.08 200 114.18 200ZM275.78 200C285.88 200 296 190 296 180C296 170 285.9 160 275.8 160C265.7 160 255.6 170 255.6 180C255.6 190 265.7 200 275.8 200" fill="#F9F9F9"/>
</g>
</g>
<defs>
<filter id="filter0_d_661_11" x="0" y="0" width="389" height="389" filterUnits="userSpaceOnUse" color-interpolation-filters="sRGB">
<feFlood flood-opacity="0" result="BackgroundImageFix"/>
<feColorMatrix in="SourceAlpha" type="matrix" values="0 0 0 0 0 0 0 0 0 0 0 0 0 0 0 0 0 0 127 0" result="hardAlpha"/>
<feOffset dy="4"/>
<feGaussianBlur stdDeviation="2"/>
<feComposite in2="hardAlpha" operator="out"/>
<feColorMatrix type="matrix" values="0 0 0 0 0 0 0 0 0 0 0 0 0 0 0 0 0 0 0.25 0"/>
<feBlend mode="normal" in2="BackgroundImageFix" result="effect1_dropShadow_661_11"/>
<feBlend mode="normal" in="SourceGraphic" in2="effect1_dropShadow_661_11" result="shape"/>
</filter>
<filter id="filter1_i_661_11" x="47" y="41" width="295" height="303" filterUnits="userSpaceOnUse" color-interpolation-filters="sRGB">
<feFlood flood-opacity="0" result="BackgroundImageFix"/>
<feBlend mode="normal" in="SourceGraphic" in2="BackgroundImageFix" result="shape"/>
<feColorMatrix in="SourceAlpha" type="matrix" values="0 0 0 0 0 0 0 0 0 0 0 0 0 0 0 0 0 0 127 0" result="hardAlpha"/>
<feOffset dy="4"/>
<feGaussianBlur stdDeviation="2"/>
<feComposite in2="hardAlpha" operator="arithmetic" k2="-1" k3="1"/>
<feColorMatrix type="matrix" values="0 0 0 0 0 0 0 0 0 0 0 0 0 0 0 0 0 0 0.25 0"/>
<feBlend mode="normal" in2="shape" result="effect1_innerShadow_661_11"/>
</filter>
<filter id="filter2_i_661_11" x="94" y="160" width="202" height="44" filterUnits="userSpaceOnUse" color-interpolation-filters="sRGB">
<feFlood flood-opacity="0" result="BackgroundImageFix"/>
<feBlend mode="normal" in="SourceGraphic" in2="BackgroundImageFix" result="shape"/>
<feColorMatrix in="SourceAlpha" type="matrix" values="0 0 0 0 0 0 0 0 0 0 0 0 0 0 0 0 0 0 127 0" result="hardAlpha"/>
<feOffset dy="4"/>
<feGaussianBlur stdDeviation="2"/>
<feComposite in2="hardAlpha" operator="arithmetic" k2="-1" k3="1"/>
<feColorMatrix type="matrix" values="0 0 0 0 0 0 0 0 0 0 0 0 0 0 0 0 0 0 0.25 0"/>
<feBlend mode="normal" in2="shape" result="effect1_innerShadow_661_11"/>
</filter>
<linearGradient id="paint0_linear_661_11" x1="335.5" y1="341.38" x2="33.5773" y2="74.1584" gradientUnits="userSpaceOnUse">
<stop stop-color="#2070C6"/>
<stop offset="1" stop-color="#2C9F86"/>
</linearGradient>
<clipPath id="clip0_661_11">
<rect width="355" height="355" fill="white" transform="translate(17 13)"/>
</clipPath>
</defs>
</svg>
